<svg width="25" height="25" viewBox="0 0 25 25" fill="none" xmlns="http://www.w3.org/2000/svg">
<path d="M7.70898 4.16671L5.20898 7.50004V19.1667C5.20898 19.6087 5.38458 20.0327 5.69714 20.3452C6.0097 20.6578 6.43362 20.8334 6.87565 20.8334H18.5423C18.9843 20.8334 19.4083 20.6578 19.7208 20.3452C20.0334 20.0327 20.209 19.6087 20.209 19.1667V7.50004L17.709 4.16671H7.70898Z" stroke="#494949" stroke-width="0.939198" stroke-linecap="round" stroke-linejoin="round"/>
<path d="M5.20898 7.50005H20.209" stroke="#494949" stroke-width="0.939198" stroke-linecap="round" stroke-linejoin="round"/>
<path d="M16.0437 10.8333C16.0437 11.7177 15.6924 12.5658 15.0671 13.1911C14.4418 13.8164 13.5937 14.1677 12.7094 14.1677C11.825 14.1677 10.9769 13.8164 10.3516 13.1911C9.7263 12.5658 9.375 11.7177 9.375 10.8333" stroke="#494949" stroke-width="0.939198" stroke-linecap="round" stroke-linejoin="round"/>
</svg>
