<svg width="25" height="25" viewBox="0 0 25 25" fill="none" xmlns="http://www.w3.org/2000/svg">
<path d="M6.55947 21.9817C5.05266 21.9817 3.90039 20.8295 3.90039 19.3227C3.90039 17.8159 5.05266 16.6636 6.55947 16.6636C8.06628 16.6636 9.21855 17.8159 9.21855 19.3227C9.21855 20.8295 8.06628 21.9817 6.55947 21.9817ZM6.55947 17.5499C5.67311 17.5499 4.78675 17.8857 4.78675 19.3227C4.78675 20.6522 5.67311 21.0954 6.55947 21.0954C7.44583 21.0954 8.33219 20.6522 8.33219 19.3227C8.33219 17.9931 7.44583 17.5499 6.55947 17.5499ZM18.9685 21.9817C17.4617 21.9817 16.3094 20.8295 16.3094 19.3227C16.3094 17.8159 17.4617 16.6636 18.9685 16.6636C20.4753 16.6636 21.6276 17.8159 21.6276 19.3227C21.6276 20.8295 20.4753 21.9817 18.9685 21.9817ZM18.9685 17.5499C18.4367 17.5499 17.1958 17.7484 17.1958 19.3227C17.1958 20.209 17.639 21.0954 18.9685 21.0954C20.298 21.0954 20.7412 20.209 20.7412 19.3227C20.7412 18.6073 20.298 17.5499 18.9685 17.5499Z" fill="#494949"/>
<path d="M22.5132 20.209H21.6269C21.0951 20.209 21.0064 20.2976 21.0064 19.7658C21.0064 19.234 21.0951 19.3227 21.6269 19.3227H22.5132V14.1818L20.7405 8.68633H17.1951C16.6633 8.68633 16.3087 8.33179 16.3087 7.79997V5.1409H3.01331V11.7886V19.3227H3.89967C4.43149 19.3227 4.34285 19.234 4.34285 19.7658C4.34285 20.2976 4.43149 20.209 3.89967 20.209H3.01331C2.4815 20.209 2.12695 19.8545 2.12695 19.3227V5.1409C2.12695 4.60908 2.4815 4.25454 3.01331 4.25454H16.3087C16.8405 4.25454 17.1951 4.60908 17.1951 5.1409V7.79997H20.7405C21.0951 7.79997 21.4496 8.06588 21.5382 8.42043L23.311 13.7386C23.311 13.8272 23.3996 13.9159 23.3996 14.0045V19.3227C23.3996 19.8545 23.045 20.209 22.5132 20.209Z" fill="#494949"/>
<path d="M16.457 20.2089H9.07066C8.62748 20.2089 8.33203 20.0317 8.33203 19.7658C8.33203 19.4999 8.62748 19.3226 9.07066 19.3226H16.457C16.9002 19.3226 17.1956 19.4999 17.1956 19.7658C17.1956 20.0317 16.9002 20.2089 16.457 20.2089Z" fill="#494949"/>
<path d="M16.7518 20.2089C16.4859 20.2089 16.3086 19.8291 16.3086 19.2593V7.86321C16.3086 7.29341 16.4859 6.91354 16.7518 6.91354C17.0177 6.91354 17.195 7.29341 17.195 7.86321V19.2593C17.195 19.8291 17.0177 20.2089 16.7518 20.2089Z" fill="#494949"/>
<path d="M22.6135 14.0046H17.0967C16.6238 14.0046 16.3086 13.8273 16.3086 13.5613C16.3086 13.2953 16.6238 13.118 17.0967 13.118H22.6135C23.0864 13.118 22.9583 13.2953 22.9583 13.5613C22.9583 13.8273 23.0864 14.0046 22.6135 14.0046Z" fill="#494949"/>
</svg>
